# Blender v2.81 (sub 16) OBJ File: ''
# www.blender.org
o section4
v 2.450000 2.680000 0.000000
v 1.125190 2.930000 0.000000
v -2.450000 2.680000 0.000000
v 2.125190 3.030000 0.000000
v 2.900000 4.480000 0.000001
v 2.450000 2.680014 -85.000000
v 2.900000 4.480014 -85.000000
v -2.450000 2.680014 -85.000000
v -2.900000 4.480000 0.000001
v -2.900000 4.480014 -85.000000
v -2.125190 3.030000 0.000000
v -1.125190 2.930000 0.000000
v 1.125190 2.930014 -85.000000
v -1.125190 2.930014 -85.000000
v 2.125190 3.030014 -85.000000
v 2.487690 4.480000 0.000001
v 2.487690 4.480014 -85.000000
v 1.487690 4.580000 0.000001
v 5.000000 4.630000 0.000001
v 5.000000 4.630014 -85.000000
v 1.487690 4.580014 -85.000000
v -2.125190 3.030014 -85.000000
v -2.487690 4.480014 -85.000000
v -1.487690 4.580014 -85.000000
v -5.000000 4.630014 -85.000000
v -5.000000 4.630000 0.000001
v -1.487690 4.580000 0.000001
v -2.487690 4.480000 0.000001
v 5.400000 4.880000 0.000001
v 5.400000 4.550000 0.000001
v 5.380000 4.530000 0.000001
v 5.380000 4.530014 -85.000000
v 5.400000 4.550014 -85.000000
v 5.400000 4.880014 -85.000000
v -5.400000 4.880014 -85.000000
v -5.400000 4.550014 -85.000000
v -5.380000 4.530014 -85.000000
v -5.380000 4.530000 0.000001
v -5.400000 4.550000 0.000001
v -5.400000 4.880000 0.000001
v 5.380000 4.900000 0.000001
v 5.380000 4.900014 -85.000000
v -5.380000 4.900014 -85.000000
v -5.380000 4.900000 0.000001
v 5.000000 4.900000 0.000001
v 5.400000 4.920000 0.000001
v 5.000000 4.980000 0.000001
v 5.175000 5.230000 0.000001
v 5.400000 5.680000 0.000001
v 5.400000 4.920014 -85.000000
v 5.400000 5.680014 -85.000000
v 5.000000 4.980014 -85.000000
v 5.000000 4.900014 -85.000000
v -5.000000 4.900014 -85.000000
v -5.400000 4.920014 -85.000000
v -5.000000 4.980014 -85.000000
v -5.175000 5.230014 -85.000000
v -5.400000 5.680014 -85.000000
v -5.400000 4.920000 0.000001
v -5.400000 5.680000 0.000001
v -5.175000 5.230000 0.000001
v -5.000000 4.980000 0.000001
v -5.000000 4.900000 0.000001
v 0.000000 5.000000 0.000001
v 0.000000 5.000014 -85.000000
v 5.175000 5.230014 -85.000000
v 5.225000 5.680000 0.000001
v 5.225000 5.680014 -85.000000
v 5.380000 5.700000 0.000001
v 5.380000 5.700014 -85.000000
v 5.245000 5.700014 -85.000000
v 5.245000 5.700000 0.000001
v -5.225000 5.680000 0.000001
v -5.225000 5.680014 -85.000000
v -5.245000 5.700000 0.000001
v -5.245000 5.700014 -85.000000
v -5.380000 5.700014 -85.000000
v -5.380000 5.700000 0.000001
v -1.500000 -3.999999 -8.250001
v 1.500000 -3.999999 -8.250001
v 1.500000 -3.999999 -6.750000
v -1.500000 -3.999999 -6.750000
v -1.500000 2.500001 -8.250000
v 1.500000 2.500001 -8.250000
v -1.500000 2.500001 -6.750000
v 1.500000 2.500001 -6.750000
v -1.500000 -3.999993 -41.750000
v 1.500000 -3.999993 -41.750000
v 1.500000 2.500007 -41.750000
v -1.500000 2.500007 -41.750000
v -1.500000 -3.999993 -43.250000
v 1.500000 -3.999993 -43.250000
v -1.500000 2.500007 -43.250000
v 1.500000 2.500007 -43.250000
v 1.500000 2.500013 -78.250000
v -1.500000 2.500013 -78.250000
v -1.500000 2.500012 -76.750000
v 1.500000 2.500012 -76.750000
v 1.500000 -3.999987 -78.250000
v -1.500000 -3.999987 -78.250000
v 1.500000 -3.999988 -76.750000
v -1.500000 -3.999988 -76.750000
vn 0.0000 -0.0000 1.0000
vn 0.9701 -0.2425 -0.0000
vn 0.0000 -1.0000 -0.0000
vn -0.9701 -0.2425 -0.0000
vn 0.0000 1.0000 0.0000
vn -0.0995 0.9950 0.0000
vn -0.9701 0.2425 0.0000
vn 0.0712 -0.9975 -0.0000
vn 0.0000 0.0000 -1.0000
vn -0.0712 -0.9975 -0.0000
vn 0.9701 0.2425 0.0000
vn 0.0995 0.9950 0.0000
vn 0.0995 -0.9950 -0.0000
vn -0.2545 -0.9671 -0.0000
vn 0.0001 0.0000 -1.0000
vn 0.2545 -0.9671 -0.0000
vn 0.7071 0.7071 0.0000
vn 1.0000 0.0000 0.0000
vn 0.7071 -0.7071 -0.0000
vn -0.7071 0.7071 0.0000
vn -1.0000 0.0000 0.0000
vn -0.0200 0.9998 0.0000
vn 0.0200 0.9998 0.0000
vn -0.8192 0.5735 0.0000
vn -0.9939 0.1104 0.0000
vn 0.8192 0.5735 0.0000
vn 0.9939 0.1104 0.0000
vn -0.7071 -0.7071 -0.0000
vn -0.0995 -0.9950 -0.0000
s 1
f 1//1 2//1 3//1
f 2//1 1//1 4//1
f 4//1 1//1 5//1
f 1//2 7//2 5//2
f 3//3 6//3 1//3
f 9//4 8//4 3//4
f 3//1 11//1 9//1
f 11//1 3//1 12//1
f 12//1 3//1 2//1
f 2//5 14//5 12//5
f 4//6 13//6 2//6
f 16//7 15//7 4//7
f 4//1 5//1 16//1
f 16//1 5//1 18//1
f 18//1 5//1 19//1
f 5//8 20//8 19//8
f 7//9 21//9 20//9
f 7//9 17//9 21//9
f 7//9 15//9 17//9
f 6//9 15//9 7//9
f 15//9 6//9 13//9
f 13//9 6//9 8//9
f 13//9 8//9 14//9
f 8//9 22//9 14//9
f 22//9 8//9 10//9
f 22//9 10//9 23//9
f 23//9 10//9 24//9
f 24//9 10//9 25//9
f 26//10 10//10 9//10
f 9//1 27//1 26//1
f 9//1 28//1 27//1
f 9//1 11//1 28//1
f 11//11 23//11 28//11
f 12//12 22//12 11//12
f 28//13 24//13 27//13
f 27//3 21//3 18//3
f 18//1 19//1 27//1
f 26//1 27//1 19//1
f 19//1 29//1 26//1
f 19//1 30//1 29//1
f 30//1 19//1 31//1
f 19//14 32//14 31//14
f 20//9 33//9 32//15
f 33//9 20//9 34//9
f 34//9 20//9 35//9
f 25//9 35//9 20//9
f 25//9 36//9 35//9
f 36//9 25//9 37//9
f 38//16 25//16 26//16
f 26//1 39//1 38//1
f 39//1 26//1 40//1
f 40//1 26//1 29//1
f 40//1 29//1 41//1
f 29//17 42//17 41//17
f 30//18 34//18 29//18
f 31//19 33//19 30//19
f 34//9 43//9 42//9
f 34//9 35//9 43//9
f 44//20 35//20 40//20
f 40//1 41//1 44//1
f 44//1 41//1 45//1
f 46//1 45//1 41//1
f 45//1 46//1 47//1
f 47//1 46//1 48//1
f 48//1 46//1 49//1
f 46//18 51//18 49//18
f 41//19 50//19 46//19
f 42//9 52//9 50//9
f 42//9 53//9 52//9
f 42//9 54//1 53//9
f 42//9 43//9 54//1
f 55//9 54//1 43//9
f 54//1 55//9 56//9
f 56//9 55//9 57//9
f 57//9 55//9 58//9
f 60//21 55//21 59//21
f 59//1 61//1 60//1
f 59//1 62//1 61//1
f 44//1 62//1 59//1
f 44//1 63//1 62//1
f 44//1 45//1 63//1
f 64//1 63//1 45//1
f 64//22 54//22 63//22
f 45//23 65//23 64//23
f 47//21 53//21 45//21
f 48//24 52//24 47//24
f 67//25 66//25 48//25
f 48//1 49//1 67//1
f 67//1 49//1 69//1
f 49//17 70//17 69//17
f 51//9 71//9 70//9
f 51//9 68//9 71//9
f 51//9 66//9 68//9
f 50//9 66//9 51//9
f 50//9 52//9 66//9
f 72//20 68//20 67//20
f 67//1 69//1 72//1
f 69//5 71//5 72//5
f 65//9 53//9 54//1
f 63//18 56//18 62//18
f 62//26 57//26 61//26
f 61//27 74//27 73//27
f 60//1 61//1 73//1
f 60//1 73//1 75//1
f 73//17 76//17 75//17
f 74//9 77//9 76//9
f 74//9 58//9 77//9
f 57//9 58//9 74//9
f 78//20 58//20 60//20
f 60//1 75//1 78//1
f 75//5 77//5 78//5
f 59//28 43//28 44//28
f 40//21 36//21 39//21
f 39//28 37//28 38//28
f 20//9 24//9 25//9
f 20//9 21//9 24//9
f 18//29 17//29 16//29
f 80//3 82//3 79//3
f 79//9 84//9 80//9
f 82//21 83//21 79//21
f 81//1 85//1 82//1
f 80//18 86//18 81//18
f 83//5 86//5 84//5
f 88//1 90//1 87//1
f 92//3 87//3 91//3
f 91//9 94//9 92//9
f 87//21 93//21 91//21
f 93//5 89//5 94//5
f 92//18 89//18 88//18
f 96//5 98//5 95//5
f 100//9 95//9 99//9
f 99//3 102//3 100//3
f 99//18 98//18 101//18
f 101//1 97//1 102//1
f 102//21 96//21 100//21
f 1//2 6//2 7//2
f 3//3 8//3 6//3
f 9//4 10//4 8//4
f 2//5 13//5 14//5
f 4//6 15//6 13//6
f 16//7 17//7 15//7
f 5//8 7//8 20//8
f 26//10 25//10 10//10
f 11//11 22//11 23//11
f 12//12 14//12 22//12
f 28//13 23//13 24//13
f 27//3 24//3 21//3
f 19//14 20//14 32//14
f 38//16 37//16 25//16
f 29//17 34//17 42//17
f 30//18 33//18 34//18
f 31//19 32//19 33//19
f 44//20 43//20 35//20
f 46//18 50//18 51//18
f 41//19 42//19 50//19
f 60//21 58//21 55//21
f 64//22 65//22 54//22
f 45//23 53//23 65//23
f 47//21 52//21 53//21
f 48//24 66//24 52//24
f 67//25 68//25 66//25
f 49//17 51//17 70//17
f 72//20 71//20 68//20
f 69//5 70//5 71//5
f 63//18 54//18 56//18
f 62//26 56//26 57//26
f 61//27 57//27 74//27
f 73//17 74//17 76//17
f 78//20 77//20 58//20
f 75//5 76//5 77//5
f 59//28 55//28 43//28
f 40//21 35//21 36//21
f 39//28 36//28 37//28
f 18//29 21//29 17//29
f 80//3 81//3 82//3
f 79//9 83//9 84//9
f 82//21 85//21 83//21
f 81//1 86//1 85//1
f 80//18 84//18 86//18
f 83//5 85//5 86//5
f 88//1 89//1 90//1
f 92//3 88//3 87//3
f 91//9 93//9 94//9
f 87//21 90//21 93//21
f 93//5 90//5 89//5
f 92//18 94//18 89//18
f 96//5 97//5 98//5
f 100//9 96//9 95//9
f 99//3 101//3 102//3
f 99//18 95//18 98//18
f 101//1 98//1 97//1
f 102//21 97//21 96//21
