# Blender v2.81 (sub 16) OBJ File: ''
# www.blender.org
o section
v 2.450000 2.680000 0.000000
v 1.125190 2.930000 0.000000
v -2.450000 2.680000 0.000000
v 2.125190 3.030000 0.000000
v 2.900000 4.480000 0.000002
v 2.450000 2.680012 -35.000000
v 2.900000 4.480012 -35.000000
v -2.450000 2.680012 -35.000000
v -2.900000 4.480000 0.000002
v -2.900000 4.480012 -35.000000
v -2.125190 3.030000 0.000000
v -1.125190 2.930000 0.000000
v 1.125190 2.930012 -35.000000
v -1.125190 2.930012 -35.000000
v 2.125190 3.030012 -35.000000
v 2.487690 4.480000 0.000002
v 2.487690 4.480012 -35.000000
v 1.487690 4.580000 0.000002
v 5.000000 4.630000 0.000002
v 5.000000 4.630012 -35.000000
v 1.487690 4.580012 -35.000000
v -2.125190 3.030012 -35.000000
v -2.487690 4.480012 -35.000000
v -1.487690 4.580012 -35.000000
v -5.000000 4.630012 -35.000000
v -5.000000 4.630000 0.000002
v -1.487690 4.580000 0.000002
v -2.487690 4.480000 0.000002
v 5.400000 4.880000 0.000002
v 5.400000 4.550000 0.000002
v 5.380000 4.530000 0.000002
v 5.380000 4.530012 -35.000000
v 5.400000 4.550012 -35.000000
v 5.400000 4.880012 -35.000000
v -5.400000 4.880012 -35.000000
v -5.400000 4.550012 -35.000000
v -5.380000 4.530012 -35.000000
v -5.380000 4.530000 0.000002
v -5.400000 4.550000 0.000002
v -5.400000 4.880000 0.000002
v 5.380000 4.900000 0.000002
v 5.380000 4.900012 -35.000000
v -5.380000 4.900012 -35.000000
v -5.380000 4.900000 0.000002
v 5.000000 4.900000 0.000002
v 5.400000 4.920000 0.000002
v 5.000000 4.980000 0.000002
v 5.175000 5.230000 0.000002
v 5.400000 5.680000 0.000002
v 5.400000 4.920012 -35.000000
v 5.400000 5.680012 -35.000000
v 5.000000 4.980012 -35.000000
v 5.000000 4.900012 -35.000000
v -5.000000 4.900012 -35.000000
v -5.400000 4.920012 -35.000000
v -5.000000 4.980012 -35.000000
v -5.175000 5.230012 -35.000000
v -5.400000 5.680012 -35.000000
v -5.400000 4.920000 0.000002
v -5.400000 5.680000 0.000002
v -5.175000 5.230000 0.000002
v -5.000000 4.980000 0.000002
v -5.000000 4.900000 0.000002
v 0.000000 5.000000 0.000002
v 0.000000 5.000012 -35.000000
v 5.175000 5.230012 -35.000000
v 5.225000 5.680000 0.000002
v 5.225000 5.680012 -35.000000
v 5.380000 5.700000 0.000002
v 5.380000 5.700012 -35.000000
v 5.245000 5.700012 -35.000000
v 5.245000 5.700000 0.000002
v -5.225000 5.680000 0.000002
v -5.225000 5.680012 -35.000000
v -5.245000 5.700000 0.000002
v -5.245000 5.700012 -35.000000
v -5.380000 5.700012 -35.000000
v -5.380000 5.700000 0.000002
vn 0.4963 -0.6356 0.5913
vn -0.0346 0.6947 0.7185
vn -0.4963 -0.6356 0.5913
vn -0.3316 0.3836 0.8619
vn 0.3221 -0.3835 0.8655
vn 0.3221 -0.3835 -0.8655
vn 0.4963 -0.6356 -0.5913
vn -0.3221 -0.3835 0.8655
vn -0.4963 -0.6356 -0.5913
vn 0.3316 0.3836 0.8619
vn 0.0346 0.6947 0.7185
vn 0.0346 0.6947 -0.7185
vn -0.0346 0.6947 -0.7185
vn -0.3186 -0.2241 0.9210
vn -0.3316 0.3836 -0.8619
vn -0.0346 -0.6947 0.7185
vn -0.0619 -0.6632 0.7458
vn -0.0619 -0.6632 -0.7458
vn -0.0346 -0.6947 -0.7185
vn -0.3186 -0.2241 -0.9210
vn 0.3316 0.3836 -0.8619
vn -0.3221 -0.3835 -0.8655
vn 0.3186 -0.2241 -0.9210
vn 0.0346 -0.6947 -0.7185
vn 0.0619 -0.6632 -0.7458
vn 0.0619 -0.6632 0.7458
vn 0.0346 -0.6947 0.7185
vn 0.3186 -0.2241 0.9210
vn 0.7173 0.2971 0.6302
vn 0.7173 -0.2971 0.6302
vn 0.2067 -0.7647 0.6103
vn 0.2067 -0.7647 -0.6103
vn 0.7173 -0.2971 -0.6302
vn 0.7173 0.2971 -0.6302
vn -0.7173 0.2971 -0.6302
vn -0.7173 -0.2971 -0.6302
vn -0.2067 -0.7647 -0.6103
vn -0.2067 -0.7647 0.6103
vn -0.7173 -0.2971 0.6302
vn -0.7173 0.2971 0.6302
vn 0.4264 0.0000 0.9045
vn 0.4264 0.0000 -0.9045
vn -0.4264 0.0000 -0.9045
vn -0.4264 0.0000 0.9045
vn -0.2950 0.3009 0.9069
vn -0.7286 0.2297 0.6453
vn -0.6001 0.2263 0.7673
vn -0.7286 0.2297 -0.6453
vn -0.5720 0.5836 0.5763
vn 0.2950 0.3009 -0.9069
vn 0.7286 0.2297 -0.6453
vn 0.6001 0.2263 -0.7673
vn 0.6001 0.2263 0.7673
vn 0.7286 0.2297 0.6453
vn 0.5720 0.5836 -0.5763
vn 0.0000 0.7115 0.7026
vn 0.0000 0.7115 -0.7026
vn -0.6928 0.3330 0.6396
vn -0.6001 0.2263 -0.7673
vn 0.2971 0.7173 0.6302
vn 0.2971 0.7173 -0.6302
vn -0.2971 0.7173 -0.6302
vn -0.6928 0.3330 -0.6396
vn -0.2971 0.7173 0.6302
vn 0.6928 0.3330 -0.6396
vn 0.6928 0.3330 0.6396
s 1
f 1//1 2//2 3//3
f 2//2 1//1 4//4
f 4//4 1//1 5//5
f 1//1 7//6 5//5
f 3//3 6//7 1//1
f 9//8 8//9 3//3
f 3//3 11//10 9//8
f 11//10 3//3 12//11
f 12//11 3//3 2//2
f 2//2 14//12 12//11
f 4//4 13//13 2//2
f 16//14 15//15 4//4
f 4//4 5//5 16//14
f 16//14 5//5 18//16
f 18//16 5//5 19//17
f 5//5 20//18 19//17
f 7//6 21//19 20//18
f 7//6 17//20 21//19
f 7//6 15//15 17//20
f 6//7 15//15 7//6
f 15//15 6//7 13//13
f 13//13 6//7 8//9
f 13//13 8//9 14//12
f 8//9 22//21 14//12
f 22//21 8//9 10//22
f 22//21 10//22 23//23
f 23//23 10//22 24//24
f 24//24 10//22 25//25
f 26//26 10//22 9//8
f 9//8 27//27 26//26
f 9//8 28//28 27//27
f 9//8 11//10 28//28
f 11//10 23//23 28//28
f 12//11 22//21 11//10
f 28//28 24//24 27//27
f 27//27 21//19 18//16
f 18//16 19//17 27//27
f 26//26 27//27 19//17
f 19//17 29//29 26//26
f 19//17 30//30 29//29
f 30//30 19//17 31//31
f 19//17 32//32 31//31
f 20//18 33//33 32//32
f 33//33 20//18 34//34
f 34//34 20//18 35//35
f 25//25 35//35 20//18
f 25//25 36//36 35//35
f 36//36 25//25 37//37
f 38//38 25//25 26//26
f 26//26 39//39 38//38
f 39//39 26//26 40//40
f 40//40 26//26 29//29
f 40//40 29//29 41//41
f 29//29 42//42 41//41
f 30//30 34//34 29//29
f 31//31 33//33 30//30
f 34//34 43//43 42//42
f 34//34 35//35 43//43
f 44//44 35//35 40//40
f 40//40 41//41 44//44
f 44//44 41//41 45//45
f 46//30 45//45 41//41
f 45//45 46//30 47//46
f 47//46 46//30 48//47
f 48//47 46//30 49//29
f 46//30 51//34 49//29
f 41//41 50//33 46//30
f 42//42 52//48 50//33
f 42//42 53//49 52//48
f 42//42 54//50 53//49
f 42//42 43//43 54//50
f 55//36 54//50 43//43
f 54//50 55//36 56//51
f 56//51 55//36 57//52
f 57//52 55//36 58//35
f 60//40 55//36 59//39
f 59//39 61//53 60//40
f 59//39 62//54 61//53
f 44//44 62//54 59//39
f 44//44 63//55 62//54
f 44//44 45//45 63//55
f 64//56 63//55 45//45
f 64//56 54//50 63//55
f 45//45 65//57 64//56
f 47//46 53//49 45//45
f 48//47 52//48 47//46
f 67//58 66//59 48//47
f 48//47 49//29 67//58
f 67//58 49//29 69//60
f 49//29 70//61 69//60
f 51//34 71//62 70//61
f 51//34 68//63 71//62
f 51//34 66//59 68//63
f 50//33 66//59 51//34
f 50//33 52//48 66//59
f 72//64 68//63 67//58
f 67//58 69//60 72//64
f 69//60 71//62 72//64
f 65//57 53//49 54//50
f 63//55 56//51 62//54
f 61//53 56//51 57//52
f 61//53 74//65 73//66
f 60//40 61//53 73//66
f 60//40 73//66 75//60
f 73//66 76//61 75//60
f 74//65 77//62 76//61
f 74//65 58//35 77//62
f 57//52 58//35 74//65
f 78//64 58//35 60//40
f 60//40 75//60 78//64
f 75//60 77//62 78//64
f 59//39 43//43 44//44
f 40//40 36//36 39//39
f 39//39 37//37 38//38
f 20//18 24//24 25//25
f 20//18 21//19 24//24
f 18//16 17//20 16//14
f 1//1 6//7 7//6
f 3//3 8//9 6//7
f 9//8 10//22 8//9
f 2//2 13//13 14//12
f 4//4 15//15 13//13
f 16//14 17//20 15//15
f 5//5 7//6 20//18
f 26//26 25//25 10//22
f 11//10 22//21 23//23
f 12//11 14//12 22//21
f 28//28 23//23 24//24
f 27//27 24//24 21//19
f 19//17 20//18 32//32
f 38//38 37//37 25//25
f 29//29 34//34 42//42
f 30//30 33//33 34//34
f 31//31 32//32 33//33
f 44//44 43//43 35//35
f 46//30 50//33 51//34
f 41//41 42//42 50//33
f 60//40 58//35 55//36
f 64//56 65//57 54//50
f 45//45 53//49 65//57
f 47//46 52//48 53//49
f 48//47 66//59 52//48
f 67//58 68//63 66//59
f 49//29 51//34 70//61
f 72//64 71//62 68//63
f 69//60 70//61 71//62
f 63//55 54//50 56//51
f 61//53 62//54 56//51
f 61//53 57//52 74//65
f 73//66 74//65 76//61
f 78//64 77//62 58//35
f 75//60 76//61 77//62
f 59//39 55//36 43//43
f 40//40 35//35 36//36
f 39//39 36//36 37//37
f 18//16 21//19 17//20
