# Blender v2.81 (sub 16) OBJ File: 'indiana.blend'
# www.blender.org
o indiana
v 0.000000 0.000000 0.000000
v 61.876156 0.000000 0.000000
v 61.876156 0.000000 -12.610000
v 47.926170 0.000000 -12.610000
v 47.926170 0.000000 -34.370010
v 63.816154 0.000000 -34.370010
v 63.816154 0.000000 -44.179996
v 60.236156 0.000000 -44.179996
v 60.236156 0.000000 -59.149994
v 63.816154 0.000000 -59.149994
v 63.816154 0.000000 -69.939995
v 47.816162 0.000000 -69.939995
v 47.816162 0.000000 -91.499992
v 83.586174 0.000000 -91.499992
v 83.586174 0.000000 -62.870003
v 89.776154 0.000000 -62.870003
v 89.776154 0.000000 -41.320011
v 83.586174 0.000000 -41.320011
v 83.586174 0.000000 0.000000
v 441.889893 0.000000 0.000000
v 441.889893 0.000000 -229.623779
v 0.000000 0.000000 -229.623779
v 133.891434 0.000000 -170.140991
v 133.749268 0.000000 -169.083817
v 133.673767 0.000000 -168.019760
v 133.665207 0.000000 -166.953094
v 133.723694 0.000000 -165.888000
v 133.848907 0.000000 -164.828659
v 134.040405 0.000000 -163.779282
v 134.297394 0.000000 -162.743973
v 134.618881 0.000000 -161.726883
v 135.003616 0.000000 -160.731949
v 135.450058 0.000000 -159.763184
v 135.956482 0.000000 -158.824326
v 136.520813 0.000000 -157.919113
v 137.140869 0.000000 -157.051147
v 137.814240 0.000000 -156.223831
v 138.538177 0.000000 -155.440414
v 139.309906 0.000000 -154.703995
v 140.126373 0.000000 -154.017502
v 140.984314 0.000000 -153.383621
v 141.880325 0.000000 -152.804855
v 142.810974 0.000000 -152.283493
v 143.772491 0.000000 -151.821609
v 144.761139 0.000000 -151.420975
v 145.772949 0.000000 -151.083237
v 146.804001 0.000000 -150.809692
v 147.850174 0.000000 -150.601456
v 148.907379 0.000000 -150.459290
v 149.971405 0.000000 -150.383774
v 151.038086 0.000000 -150.375244
v 152.103180 0.000000 -150.433716
v 153.162506 0.000000 -150.558929
v 154.211899 0.000000 -150.750427
v 155.247192 0.000000 -151.007431
v 156.264282 0.000000 -151.328903
v 157.259201 0.000000 -151.713654
v 158.228012 0.000000 -152.160095
v 159.166840 0.000000 -152.666473
v 160.072052 0.000000 -153.230835
v 160.940018 0.000000 -153.850891
v 161.767349 0.000000 -154.524231
v 162.550751 0.000000 -155.248215
v 163.287186 0.000000 -156.019928
v 163.973694 0.000000 -156.836395
v 164.607574 0.000000 -157.694336
v 165.186340 0.000000 -158.590363
v 165.707672 0.000000 -159.520996
v 166.169571 0.000000 -160.482513
v 166.570190 0.000000 -161.471130
v 166.907928 0.000000 -162.482971
v 167.181458 0.000000 -163.513992
v 167.389740 0.000000 -164.560211
v 167.531876 0.000000 -165.617371
v 167.607391 0.000000 -166.681427
v 167.615921 0.000000 -167.748108
v 167.557480 0.000000 -168.813217
v 167.432266 0.000000 -169.872543
v 167.240768 0.000000 -170.921921
v 166.983780 0.000000 -171.957214
v 166.662262 0.000000 -172.974304
v 166.277527 0.000000 -173.969223
v 165.831085 0.000000 -174.938004
v 165.324692 0.000000 -175.876862
v 164.760361 0.000000 -176.782074
v 164.140274 0.000000 -177.650040
v 163.466949 0.000000 -178.477371
v 162.742950 0.000000 -179.260788
v 161.971222 0.000000 -179.997208
v 161.154800 0.000000 -180.683685
v 160.296844 0.000000 -181.317581
v 159.400803 0.000000 -181.896347
v 158.470169 0.000000 -182.417694
v 157.508667 0.000000 -182.879608
v 156.520035 0.000000 -183.280212
v 155.508194 0.000000 -183.617950
v 154.477173 0.000000 -183.891479
v 153.430984 0.000000 -184.099747
v 152.373795 0.000000 -184.241898
v 151.309753 0.000000 -184.317413
v 150.243088 0.000000 -184.325943
v 149.177963 0.000000 -184.267487
v 148.118637 0.000000 -184.142258
v 147.069260 0.000000 -183.950760
v 146.033981 0.000000 -183.693771
v 145.016861 0.000000 -183.372284
v 144.021942 0.000000 -182.987549
v 143.053162 0.000000 -182.541092
v 142.114304 0.000000 -182.034714
v 141.209122 0.000000 -181.470367
v 140.341125 0.000000 -180.850281
v 139.513809 0.000000 -180.176971
v 138.730377 0.000000 -179.452988
v 137.993973 0.000000 -178.681259
v 137.307480 0.000000 -177.864807
v 136.673584 0.000000 -177.006866
v 136.094833 0.000000 -176.110840
v 135.573471 0.000000 -175.180206
v 135.111572 0.000000 -174.218689
v 134.710953 0.000000 -173.230072
v 134.373215 0.000000 -172.218231
v 134.099686 0.000000 -171.187195
v 75.601097 0.000000 -105.370148
v 75.601097 0.000000 -99.580147
v 91.351082 0.000000 -99.580147
v 91.351082 0.000000 -105.370148
v 317.045349 0.000000 -25.657808
v 320.859161 0.000000 -40.990597
v 247.310394 0.000000 -59.285149
v 243.564468 0.000000 -43.935474
v 246.860260 0.000000 -105.565811
v 321.916016 0.000000 -112.866074
v 320.386444 0.000000 -128.591873
v 245.330704 0.000000 -121.291595
v 211.396683 0.000000 -71.632271
v 211.396683 0.000000 -55.932251
v 207.556686 0.000000 -55.932251
v 207.556686 0.000000 -32.612255
v 236.556702 0.000000 -32.612255
v 236.556702 0.000000 -55.932251
v 233.696686 0.000000 -55.932251
v 233.696686 0.000000 -75.878639
v 245.790939 0.000000 -75.878639
v 245.790939 0.000000 -66.061638
v 310.341003 0.000000 -66.061638
v 310.341003 0.000000 -97.811646
v 297.595276 0.000000 -97.811646
v 297.595276 0.000000 -103.851639
v 288.195251 0.000000 -103.851639
v 288.195251 0.000000 -97.811646
v 284.496490 0.000000 -97.811646
v 284.496490 0.000000 -103.501648
v 270.956543 0.000000 -103.501648
v 270.956543 0.000000 -97.811646
v 245.790939 0.000000 -97.811646
v 245.790939 0.000000 -85.695641
v 233.696686 0.000000 -85.695641
v 233.696686 0.000000 -105.202263
v 235.466705 0.000000 -105.202263
v 235.466705 0.000000 -128.592255
v 201.566681 0.000000 -128.592255
v 201.566681 0.000000 -105.082268
v 211.396683 0.000000 -105.082268
v 211.396683 0.000000 -89.322258
v 207.096695 0.000000 -89.322258
v 207.096695 0.000000 -85.320862
v 194.776688 0.000000 -85.320862
v 194.776688 0.000000 -75.900864
v 207.096695 0.000000 -75.900864
v 207.096695 0.000000 -71.632271
vt 0.095632 0.302443
vt 0.095632 0.395676
vt 0.000000 0.000000
vt 0.123752 0.000000
vt 0.095852 0.054530
vt 0.123752 0.054530
vt 0.883780 0.000000
vt 0.883780 0.992968
vt 0.167172 0.395676
vt 0.000000 0.992968
vt 0.167172 0.178681
vt 0.167172 0.000000
vt 0.179552 0.178681
vt 0.095852 0.148627
vt 0.127632 0.148627
vt 0.120472 0.191049
vt 0.127632 0.191049
vt 0.179552 0.271870
vt 0.167172 0.271870
vt 0.120472 0.255784
vt 0.127632 0.255784
vt 0.127632 0.302443
vn 0.0000 1.0000 0.0000
f 12/1/1 13/2/1 1/3/1
f 1/3/1 2/4/1 4/5/1
f 2/4/1 3/6/1 4/5/1
f 20/7/1 21/8/1 14/9/1
f 21/8/1 22/10/1 14/9/1
f 18/11/1 19/12/1 17/13/1
f 19/12/1 20/7/1 17/13/1
f 22/10/1 1/3/1 13/2/1
f 1/3/1 4/5/1 5/14/1
f 5/14/1 6/15/1 8/16/1
f 6/15/1 7/17/1 8/16/1
f 1/3/1 5/14/1 12/1/1
f 16/18/1 17/13/1 20/7/1
f 14/9/1 15/19/1 16/18/1
f 14/9/1 16/18/1 20/7/1
f 9/20/1 10/21/1 11/22/1
f 5/14/1 8/16/1 9/20/1
f 13/2/1 14/9/1 22/10/1
f 5/14/1 9/20/1 12/1/1
f 9/20/1 11/22/1 12/1/1
