# Alias OBJ Model File
# Exported from SketchUp, (c) 2000-2012 Trimble Navigation Limited
# File units = meters

mtllib trezedemaio.mtl

o trezedemaio

usemtl Location_Snapshot
v -173.286 3.78812 -101.023
vt 0.0438872 0.898535
vn 0.00979665 0.998382 0.0560094
v -189.956 4.66312 -117.601
vt 3.82694e-09 0.96396
vn -2.86041e-05 0.998608 0.0527363
v -189.959 4.3818 -112.274
vt 5.92831e-09 0.942926
vn -2.86051e-05 0.998608 0.0527363
f 1/1/1 2/2/2 3/3/3

v -173.272 5.14511 -126.719
vt 0.0438872 1
vn 0.0261387 0.998267 0.0527324
f 1/1/1 4/4/4 2/2/2

v -135.163 1.78812 -101.002
vt 0.144201 0.898536
vn 0.0113665 0.99987 0.0114564
f 1/1/1 5/5/5 4/4/4

v -135.184 1.78812 -63.1304
vt 0.144201 0.748992
vn -0.0564615 0.997448 -0.0436998
f 1/1/1 6/6/6 5/5/5

v -173.307 0.788116 -63.1511
vt 0.0438872 0.748992
vn 0.000103085 0.999888 -0.0149694
f 1/1/1 7/7/7 6/6/6

v -189.977 2.10062 -79.729
vt 1.66494e-08 0.814417
vn 0.0174345 0.997956 0.0614785
f 7/7/7 1/1/1 8/8/8

v -189.965 3.78812 -101.032
vt 1.0043e-08 0.898535
vn -3.57222e-05 0.997829 0.0658575
f 1/1/1 9/9/9 8/8/8

f 1/1/1 3/3/3 9/9/9

v -189.986 1.66312 -63.1601
vt 2.07101e-08 0.748992
vn 0.0523921 0.99854 -0.0131342
f 7/7/7 8/8/8 10/10/10

v -189.997 2.78812 -41.8573
vt 2.45451e-08 0.664874
vn 0.0261908 0.99931 -0.026336
f 7/7/7 10/10/10 11/11/11

v -173.327 2.78812 -25.2793
vt 0.0438872 0.599448
vn -0.0448202 0.998739 -0.0226071
f 12/12/12 7/7/7 11/11/11

v -135.204 6.78812 -25.2586
vt 0.144201 0.599449
vn -0.0565856 0.997924 -0.0307508
f 7/7/7 12/12/12 13/13/13

v -135.225 6.78812 12.6132
vt 0.144201 0.449905
vn -0.0174999 0.99797 0.0612265
f 12/12/12 14/14/14 13/13/13

v -173.348 3.78812 12.5925
vt 0.0438872 0.449905
vn -0.0448539 0.998742 0.0224294
f 12/12/12 15/15/15 14/14/14

v -190.018 2.91312 -3.98548
vt 2.75134e-08 0.51533
vn -0.0349341 0.999234 -0.0176127
f 15/15/15 12/12/12 16/16/16

v -190.006 2.35062 -25.2884
vt 2.645e-08 0.599448
vn -0.0262218 0.999656 -1.42235e-05
f 12/12/12 17/17/17 16/16/16

f 12/12/12 11/11/11 17/17/17

v -190.027 2.91312 12.5834
vt 2.72629e-08 0.449905
vn -0.0523921 0.99854 0.0131525
f 15/15/15 16/16/16 18/18/18

v -190.038 2.35062 33.8863
vt 2.55552e-08 0.365786
vn -0.0436711 0.998892 0.017552
f 15/15/15 18/18/18 19/19/19

v -173.369 2.78812 50.4642
vt 0.0438872 0.300361
vn -9.81263e-05 0.99819 0.0601324
f 20/20/20 15/15/15 19/19/19

v -135.245 1.78812 50.4849
vt 0.144201 0.300361
vn 0.0130659 0.994398 0.104892
f 15/15/15 20/20/20 21/21/21

v -135.266 -3.21188 88.3567
vt 0.144201 0.150817
vn 0.0173638 0.996382 0.0831942
f 20/20/20 22/22/22 21/21/21

v -173.389 -0.211884 88.336
vt 0.0438872 0.150817
vn 0.0596013 0.995396 0.0750653
f 20/20/20 23/23/23 22/22/22

v -190.059 0.663116 71.7581
vt 1.86696e-08 0.216242
vn 0.00871181 0.998995 0.0439678
f 23/23/23 20/20/20 24/24/24

v -190.047 2.35062 50.4552
vt 2.3149e-08 0.300361
vn -0.0262228 0.998876 0.0394868
f 20/20/20 25/25/25 24/24/24

f 20/20/20 19/19/19 25/25/25

v -190.068 1.10062 88.327
vt 1.4108e-08 0.150817
vn 0.078368 0.996148 0.0393274
f 23/23/23 24/24/24 26/26/26

v -190.08 -1.14938 109.63
vt 6.85722e-09 0.0666985
vn 0.103917 0.99147 0.0786647
f 23/23/23 26/26/26 27/27/27

v -173.41 -4.21188 126.208
vt 0.0438872 0.00127313
vn 0.0941177 0.992446 0.0786989
f 28/28/28 23/23/23 27/27/27

v -135.287 -6.21188 126.228
vt 0.144201 0.00127337
vn -0.0224443 0.996917 0.0751832
f 23/23/23 28/28/28 29/29/29

v -135.287 -6.23742 126.551
vt 0.144201 3.62246e-07
vn 9.9087e-05 0.996877 0.0789673
f 29/29/29 28/28/28 30/30/30

v -173.085 -4.25445 126.53
vt 0.0447411 1.25458e-07
vn 0.0521836 0.995517 0.0788879
f 28/28/28 31/31/31 30/30/30

v -173.41 -4.23742 126.53
vt 0.0438872 1.23169e-07
vn 0.120841 0.989567 0.0784538
f 28/28/28 32/32/32 31/31/31

v -190.089 -1.60125 126.38
vt 6.13492e-11 0.00055694
vn 0.154955 0.98483 0.0780971
f 32/32/32 28/28/28 33/33/33

v -190.088 -1.58688 126.199
vt 1.40145e-10 0.00127301
vn 0.155232 0.986501 0.0521458
f 28/28/28 34/34/34 33/33/33

f 28/28/28 27/27/27 34/34/34

v -190.089 -1.61242 126.521
vt 0 0
f 32/32/32 33/33/33 35/35/33

v -134.962 -6.20337 126.551
vt 0.145055 3.64027e-07
vn -0.0912358 0.993672 0.065518
f 29/29/29 30/30/30 36/36/35

v -97.1637 -3.22891 126.572
vt 0.244514 5.42236e-07
vn -0.104079 0.993188 0.0523935
f 29/29/29 36/36/35 37/37/36

v -97.1635 -3.21188 126.249
vt 0.244514 0.00127355
vn -0.0671243 0.997682 0.0111398
f 38/38/37 29/29/29 37/37/36

f 22/22/22 29/29/29 38/38/37

f 23/23/23 29/29/29 22/22/22

v -97.1429 -3.21188 88.3774
vt 0.244514 0.150818
vn -0.0175257 0.998684 0.0481917
f 22/22/22 38/38/37 39/39/38

v -59.0404 -1.21188 126.27
vt 0.344828 0.00127367
vn -0.0560544 0.997719 -0.0376192
f 39/39/38 38/38/37 40/40/39

v -59.0406 -1.19486 126.592
vt 0.344828 6.63155e-07
vn -0.0609677 0.996749 -0.0526713
f 40/40/39 38/38/37 41/41/40

v -96.8391 -3.17783 126.572
vt 0.245368 5.43517e-07
vn -0.104071 0.99457 -0.000340989
f 38/38/37 42/42/41 41/41/40

f 38/38/37 37/37/36 42/42/41

v -58.7161 -1.16932 126.592
vt 0.345682 6.63936e-07
vn -0.0652594 0.995699 -0.0657637
f 40/40/39 41/41/40 43/43/42

v -20.9175 0.813653 126.613
vt 0.445141 7.25003e-07
vn -0.017387 0.996726 -0.0789648
f 40/40/39 43/43/42 44/44/43

v -20.9173 0.788116 126.291
vt 0.445141 0.00127373
vn -0.0149702 0.999434 -0.0301174
f 45/45/44 40/40/39 44/44/43

v -59.0198 -1.21188 88.3982
vt 0.344828 0.150818
vn -0.0393015 0.999141 0.0131332
f 46/46/45 40/40/39 45/45/44

f 39/39/38 40/40/39 46/46/45

v -97.1223 -0.211884 50.5057
vt 0.244514 0.300361
vn 0.0260133 0.995434 0.0918437
f 47/47/46 39/39/38 46/46/45

f 21/21/21 39/39/38 47/47/46

f 21/21/21 22/22/22 39/39/38

f 14/14/14 21/21/21 47/47/46

f 15/15/15 21/21/21 14/14/14

v -97.1017 4.78812 12.6339
vt 0.244514 0.449905
vn 0.0520745 0.994421 0.0917347
f 14/14/14 47/47/46 48/48/47

v -58.9992 -1.21188 50.5264
vt 0.344828 0.300362
vn 0.00417433 0.999521 0.0306656
f 48/48/47 47/47/46 49/49/48

f 47/47/46 46/46/45 49/49/48

v -20.8967 0.788116 88.4189
vt 0.445141 0.150818
vn -0.0262038 0.999657 -1.42596e-05
f 49/49/48 46/46/45 50/50/49

f 46/46/45 45/45/44 50/50/49

v 17.2058 0.788116 126.311
vt 0.545455 0.00127373
vn 8.21825e-06 0.999886 -0.0150845
f 50/50/49 45/45/44 51/51/50

v 17.2056 0.796628 126.634
vt 0.545455 7.27772e-07
vn 1.4376e-05 0.999652 -0.0263957
f 51/51/50 45/45/44 52/52/51

v -20.593 0.796628 126.613
vt 0.445995 7.25276e-07
vn 0.0261599 0.99827 -0.0526496
f 45/45/44 53/53/52 52/52/51

f 45/45/44 44/44/43 53/53/52

v 17.5301 0.796628 126.634
vt 0.546309 7.27538e-07
vn 1.43821e-05 0.999652 -0.0263957
f 51/51/50 52/52/51 54/54/53

v 55.3287 0.796628 126.655
vt 0.645768 6.71462e-07
vn 1.43863e-05 0.999652 -0.0263957
f 51/51/50 54/54/53 55/55/54

v 55.3288 0.788116 126.332
vt 0.645768 0.00127368
vn -0.0261502 0.999629 -0.00758413
f 56/56/55 51/51/50 55/55/54

v 17.2264 0.788116 88.4397
vt 0.545455 0.150818
vn 0.0130894 0.999914 2.08135e-05
f 57/57/56 51/51/50 56/56/55

f 50/50/49 51/51/50 57/57/56

v -20.8761 0.788116 50.5471
vt 0.445141 0.300362
vn -0.0262098 0.999656 -2.03035e-05
f 58/58/57 50/50/49 57/57/56

f 49/49/48 50/50/49 58/58/57

v -58.9786 -0.211884 12.6546
vt 0.344828 0.449905
vn 0.0561535 0.995979 0.0698067
f 59/59/58 49/49/48 58/58/57

f 48/48/47 49/49/48 59/59/58

v -97.0812 9.78812 -25.2379
vt 0.244514 0.599449
vn 0.0172697 0.999699 0.0174013
f 60/60/59 48/48/47 59/59/58

f 13/13/13 48/48/47 60/60/59

f 13/13/13 14/14/14 48/48/47

f 6/6/6 13/13/13 60/60/59

f 7/7/7 13/13/13 6/6/6

v -97.0606 6.78812 -63.1097
vt 0.244514 0.748992
vn -0.0042734 0.997529 -0.0701322
f 6/6/6 60/60/59 61/61/60

v -58.958 4.78812 -25.2172
vt 0.344828 0.599449
vn 0.104124 0.994218 0.0262325
f 61/61/60 60/60/59 62/62/61

f 60/60/59 59/59/58 62/62/61

v -20.8555 -0.211884 12.6753
vt 0.445141 0.449905
vn 0.0128461 0.999917 -0.000117127
f 62/62/61 59/59/58 63/63/62

f 59/59/58 58/58/57 63/63/62

v 17.247 1.78812 50.5679
vt 0.545455 0.300362
vn 0.013094 0.999914 2.60609e-06
f 63/63/62 58/58/57 64/64/63

f 58/58/57 57/57/56 64/64/63

v 55.3495 -1.21188 88.4604
vt 0.645768 0.150818
vn -0.0130386 0.999828 -0.0131754
f 64/64/63 57/57/56 65/65/64

f 57/57/56 56/56/55 65/65/64

v 93.4519 3.78812 126.353
vt 0.746082 0.00127356
vn -0.0782746 0.996241 0.0371197
f 65/65/64 56/56/55 66/66/65

v 93.4517 3.77109 126.675
vt 0.746082 5.56081e-07
vn -0.052292 0.997244 0.0526357
f 66/66/65 56/56/55 67/67/66

v 55.6532 0.796628 126.655
vt 0.646622 6.70728e-07
vn -0.0392387 0.999144 0.0130882
f 56/56/55 68/68/67 67/67/66

f 56/56/55 55/55/54 68/68/67

v 93.7763 3.77109 126.676
vt 0.746935 5.54846e-07
vn -0.0517353 0.993184 0.104443
f 66/66/65 67/67/66 69/69/68

v 131.575 7.73704 126.696
vt 0.846395 3.81621e-07
vn -0.103164 0.98242 0.155588
f 66/66/65 69/69/68 70/70/69

v 131.575 7.78812 126.374
vt 0.846395 0.00127339
vn -0.129444 0.987643 0.0883528
f 71/71/70 66/66/65 70/70/69

v 93.4726 1.78812 88.4812
vt 0.746082 0.150818
vn -0.0869077 0.995599 -0.035081
f 72/72/71 66/66/65 71/71/70

f 65/65/64 66/66/65 72/72/71

v 55.3701 -0.211884 50.5886
vt 0.645768 0.300362
vn 0.00439074 0.999981 0.00440379
f 73/73/72 65/65/64 72/72/71

f 64/64/63 65/65/64 73/73/72

v 17.2676 0.788116 12.6961
vt 0.545455 0.449905
vn -0.00437074 0.999836 -0.0175992
f 74/74/73 64/64/63 73/73/72

f 63/63/62 64/64/63 74/74/73

v -20.8349 -1.21188 -25.1964
vt 0.445141 0.599449
vn 0.0773946 0.996225 -0.0393074
f 75/75/74 63/63/62 74/74/73

f 62/62/61 63/63/62 75/75/74

v -58.9374 4.78812 -63.089
vt 0.344828 0.748992
vn 0.124576 0.989779 -0.0694165
f 76/76/75 62/62/61 75/75/74

f 61/61/60 62/62/61 76/76/75

v -97.04 1.78812 -100.981
vt 0.244514 0.898536
vn 0.0261993 0.998645 -0.0449589
f 77/77/76 61/61/60 76/76/75

f 5/5/5 61/61/60 77/77/76

f 5/5/5 6/6/6 61/61/60

v -135.149 3.14511 -126.698
vt 0.144201 1
vn 0.0174156 0.998457 0.0527377
f 5/5/5 77/77/76 78/78/77

v -122.893 3.14511 -126.691
vt 0.176452 1
vn 0.039265 0.999141 0.0132528
f 77/77/76 79/79/78 78/78/77

v -97.026 1.10962 -126.677
vt 0.244514 1
vn 0.0436435 0.9987 -0.0263468
f 77/77/76 80/80/79 79/79/78

v -58.9168 0.788116 -100.961
vt 0.344828 0.898536
vn 0.077651 0.996537 -0.0297367
f 77/77/76 81/81/80 80/80/79

f 77/77/76 76/76/75 81/81/80

v -20.8143 -4.21188 -63.0682
vt 0.445141 0.748992
vn 0.0768309 0.995677 -0.0521975
f 81/81/80 76/76/75 82/82/81

f 76/76/75 75/75/74 82/82/81

v 17.2883 -0.211884 -25.1757
vt 0.545455 0.599449
vn -0.0522438 0.998284 -0.0264657
f 82/82/81 75/75/74 83/83/82

f 75/75/74 74/74/73 83/83/82

v 55.3908 0.788116 12.7169
vt 0.645768 0.449905
vn -0.0173816 0.999233 0.0350896
f 83/83/82 74/74/73 84/84/83

f 74/74/73 73/73/72 84/84/83

v 93.4932 -0.211884 50.6094
vt 0.746082 0.300361
vn -0.0651351 0.99779 -0.0131323
f 84/84/83 73/73/72 85/85/84

f 73/73/72 72/72/71 85/85/84

v 131.596 6.78812 88.502
vt 0.846395 0.150817
vn -0.116977 0.991748 -0.0524563
f 85/85/84 72/72/71 86/86/85

f 72/72/71 71/71/70 86/86/85

v 169.698 13.7881 126.395
vt 0.946708 0.00127315
vn -0.0651911 0.995998 0.0611424
f 86/86/85 71/71/70 87/87/86

v 169.698 13.72 126.717
vt 0.946708 1.48089e-07
vn -0.110324 0.972449 0.205359
f 87/87/86 71/71/70 88/88/87

v 131.899 7.77109 126.696
vt 0.847249 3.79886e-07
vn -0.127814 0.975327 0.18
f 71/71/70 89/89/88 88/88/87

f 71/71/70 70/70/69 89/89/88

v 170.022 13.7285 126.717
vt 0.947562 1.45847e-07
vn -0.0257689 0.978087 0.206596
f 87/87/86 88/88/87 90/90/89

v 189.951 14.2832 126.577
vt 1 0.000596722
f 87/87/86 90/90/89 91/91/89

v 189.951 14.2513 126.728
vt 1 -1.11022e-16
f 90/90/89 92/92/89 91/91/89

v 189.951 14.3194 126.406
vt 1 0.00127301
vn -0.0262152 0.998333 0.0514208
f 87/87/86 91/91/89 93/93/90

v 189.961 12.4444 108.653
vt 1 0.0713718
vn -0.043477 0.995206 -0.0876016
f 87/87/86 93/93/90 94/94/91

v 169.719 9.78812 88.5228
vt 0.946708 0.150817
vn -0.0708237 0.995197 -0.0675811
f 95/95/92 87/87/86 94/94/91

f 86/86/85 87/87/86 95/95/92

v 131.616 4.78812 50.6302
vt 0.846395 0.300361
vn -0.091256 0.995044 -0.0395008
f 96/96/93 86/86/85 95/95/92

f 85/85/84 86/86/85 96/96/93

v 93.5139 0.788116 12.7376
vt 0.746082 0.449905
vn -0.0435513 0.997887 0.0482253
f 97/97/94 85/85/84 96/96/93

f 84/84/83 85/85/84 97/97/94

v 55.4114 3.78812 -25.1549
vt 0.645768 0.599449
vn -0.0779168 0.995574 0.0525509
f 98/98/95 84/84/83 97/97/94

f 83/83/82 84/84/83 98/98/95

v 17.3089 -2.21188 -63.0475
vt 0.545455 0.748992
vn -0.112298 0.993634 -0.00900461
f 99/99/96 83/83/82 98/98/95

f 82/82/81 83/83/82 99/99/96

v -20.7937 -4.21188 -100.94
vt 0.445141 0.898536
vn 0.0298807 0.997763 0.0597934
f 100/100/97 82/82/81 99/99/96

f 81/81/80 82/82/81 100/100/97

v -58.9029 1.46661 -126.657
vt 0.344828 1
vn 0.0781246 0.996595 0.0263575
f 81/81/80 100/100/97 101/101/98

v -46.6462 -0.140896 -126.65
vt 0.377079 1
vn 0.0523672 0.993135 0.104598
f 100/100/97 102/102/99 101/101/98

v -20.7797 0.537602 -126.636
vt 0.445141 1
vn -0.0430432 0.982437 0.181564
f 100/100/97 103/103/100 102/102/99

v 17.3295 -2.21188 -100.919
vt 0.545455 0.898536
vn -0.0927378 0.992886 0.074684
f 100/100/97 104/104/101 103/103/100

f 100/100/97 99/99/96 104/104/101

v 55.432 5.78812 -63.0267
vt 0.645768 0.748992
vn -0.116573 0.993096 0.0130636
f 104/104/101 99/99/96 105/105/102

f 99/99/96 98/98/95 105/105/102

v 93.5346 4.78812 -25.1341
vt 0.746082 0.599449
vn -0.00871467 0.997497 0.0701652
f 105/105/102 98/98/95 106/106/103

f 98/98/95 97/97/94 106/106/103

v 131.637 2.78812 12.7584
vt 0.846395 0.449905
vn -0.0652893 0.997866 -9.34313e-05
f 106/106/103 97/97/94 107/107/104

f 97/97/94 96/96/93 107/107/104

v 169.739 7.78812 50.6511
vt 0.946708 0.300361
vn -0.0746224 0.996637 -0.0338652
f 107/107/104 96/96/93 108/108/105

f 96/96/93 95/95/92 108/108/105

v 189.981 10.4444 70.7815
vt 1 0.220916
vn -0.0696135 0.995684 -0.0613834
f 108/108/105 95/95/92 109/109/106

v 189.972 11.3819 88.5339
vt 1 0.150817
vn -0.0783127 0.995539 -0.052617
f 95/95/92 110/110/107 109/109/106

f 95/95/92 94/94/91 110/110/107

v 189.992 8.85062 50.6621
vt 1 0.300361
vn -0.0523272 0.997849 -0.0394891
f 108/108/105 109/109/106 111/111/108

v 190.002 8.85062 32.9097
vt 1 0.37046
vn -0.0697138 0.997414 0.0174556
f 108/108/105 111/111/108 112/112/109

v 169.76 7.78812 12.7793
vt 0.946709 0.449905
vn -0.100583 0.994814 -0.0150734
f 113/113/110 108/108/105 112/112/109

f 107/107/104 108/108/105 113/113/110

v 131.658 2.78812 -25.1133
vt 0.846395 0.599449
vn -0.0173798 0.999607 0.0219892
f 114/114/111 107/107/104 113/113/110

f 106/106/103 107/107/104 114/114/111

v 93.5552 7.78812 -63.0059
vt 0.746082 0.748992
vn 6.37221e-06 0.999652 0.0263711
f 115/115/112 106/106/103 114/114/111

f 105/105/102 106/106/103 115/115/112

v 55.4527 3.78812 -100.898
vt 0.645768 0.898536
vn -0.10403 0.994574 -0.00040121
f 116/116/113 105/105/102 115/115/112

f 104/104/101 105/105/102 116/116/113

v 17.3435 0.502108 -126.615
vt 0.545455 1
vn -0.0947981 0.989995 0.104511
f 104/104/101 116/116/113 117/117/114

v 29.6002 2.43112 -126.609
vt 0.577706 1
vn -0.0778043 0.996639 0.0256321
f 116/116/113 118/118/115 117/117/114

v 55.4667 2.43112 -126.594
vt 0.645768 1
vn -0.0695266 0.99619 -0.0526464
f 116/116/113 119/119/116 118/118/115

v 93.5759 7.78812 -100.878
vt 0.746082 0.898536
vn -0.0447926 0.998649 -0.0263511
f 116/116/113 120/120/117 119/119/116

f 116/116/113 115/115/112 120/120/117

v 131.678 4.78812 -62.9851
vt 0.846395 0.748992
vn 0.0130827 0.999132 0.0395433
f 120/120/117 115/115/112 121/121/118

f 115/115/112 114/114/111 121/121/118

v 169.781 5.78812 -25.0925
vt 0.946709 0.599448
vn -0.0931089 0.9954 -0.0225644
f 121/121/118 114/114/111 122/122/119

f 114/114/111 113/113/110 122/122/119

v 190.023 8.97562 -4.96207
vt 1 0.520003
vn -0.112796 0.992654 -0.0437582
f 122/122/119 113/113/110 123/123/120

v 190.013 9.91312 12.7903
vt 1 0.449905
vn -0.10435 0.994541 -5.70162e-05
f 113/113/110 124/124/121 123/123/120

f 113/113/110 112/112/109 124/124/121

v 190.034 8.44437 -25.0815
vt 1 0.599448
vn -0.129981 0.991169 -0.0262427
f 122/122/119 123/123/120 125/125/122

v 190.043 7.97562 -42.8339
vt 1 0.669547
vn -0.112777 0.992655 -0.0437777
f 122/122/119 125/125/122 126/126/123

v 169.802 4.78812 -62.9643
vt 0.946708 0.748992
vn -0.044798 0.998989 0.0037954
f 127/127/124 122/122/119 126/126/123

f 121/121/118 122/122/119 127/127/124

v 131.699 7.78812 -100.857
vt 0.846395 0.898536
vn 0.00376664 0.999986 0.00377771
f 128/128/125 121/121/118 127/127/124

f 120/120/117 121/121/118 128/128/125

v 93.5899 5.75262 -126.574
vt 0.746082 1
vn -0.0260435 0.996538 -0.0789546
f 120/120/117 128/128/125 129/129/126

v 105.847 5.75262 -126.567
vt 0.778333 1
vn -0.0392642 0.998445 -0.0395663
f 128/128/125 130/130/127 129/129/126

v 131.713 7.78812 -126.553
vt 0.846395 1
vn 0.00879314 0.999961 4.80417e-06
f 128/128/125 131/131/128 130/130/127

v 169.822 5.78812 -100.836
vt 0.946708 0.898535
vn 0.0229666 0.999714 0.00663344
f 128/128/125 132/132/129 131/131/128

f 128/128/125 127/127/124 132/132/129

v 190.064 6.85062 -80.7057
vt 1 0.81909
vn -0.0436706 0.999007 -0.00881588
f 132/132/129 127/127/124 133/133/130

v 190.054 6.38187 -62.9533
vt 1 0.748992
vn -0.0784084 0.996575 -0.0262846
f 127/127/124 134/134/131 133/133/130

f 127/127/124 126/126/123 134/134/131

v 190.075 5.25687 -100.825
vt 1 0.898535
vn 0.026227 0.99931 -0.0262991
f 132/132/129 133/133/130 135/135/132

v 190.082 5.57491 -112.87
vt 1 0.946097
vn 0.0261982 0.999308 0.0264009
f 132/132/129 135/135/132 136/136/133

v 169.836 6.46661 -126.532
vt 0.946708 1
f 137/137/133 132/132/129 136/136/133

v 143.97 7.14511 -126.546
vt 0.878646 1
vn 0.0393006 0.99914 0.013217
f 132/132/129 137/137/133 138/138/134

f 132/132/129 138/138/134 131/131/128

v 190.085 5.72562 -118.577
vt 1 0.968634
vn 0.0608407 0.998111 -0.00849665
f 137/137/133 136/136/133 139/139/135

v 182.093 6.14511 -126.525
vt 0.978959 1
vn 0.0781539 0.996603 -0.0259854
f 140/140/136 137/137/133 139/139/135

v 190.089 5.09637 -126.521
vt 1 1
vn 0.129684 0.988465 -0.07823
f 140/140/136 139/139/135 141/141/137

v 67.7234 3.71713 -126.588
vt 0.678019 1
vn -0.0911862 0.993668 -0.0656482
f 120/120/117 129/129/126 142/142/138

f 120/120/117 142/142/138 119/119/116

v -8.52301 1.18061 -126.629
vt 0.477392 1
vn -0.0128184 0.989572 0.143466
f 104/104/101 117/117/114 143/143/139

f 104/104/101 143/143/139 103/103/100

v -84.7694 0.788116 -126.671
vt 0.276765 1
vn -2.25779e-09 1 2.27031e-09
f 81/81/80 101/101/98 144/144/140

f 81/81/80 144/144/140 80/80/79

v -161.016 4.50211 -126.712
vt 0.0761381 1
vn 0.0522882 0.997241 0.0526925
f 5/5/5 78/78/77 145/145/141

f 5/5/5 145/145/141 4/4/4

v -189.951 5.14511 -126.728
vt 3.33067e-16 1
vn -2.86033e-05 0.998608 0.0527363
f 4/4/4 146/146/142 2/2/2

